<mxfile host="app.diagrams.net" modified="2021-07-24T14:44:02.701Z" agent="5.0 (Windows NT 10.0; Win64; x64) AppleWebKit/537.36 (KHTML, like Gecko) Chrome/89.0.4389.90 Safari/537.36" etag="VNhD0pxfDS72VhS-4pw8" version="14.7.7" type="github">
  <diagram id="ntxCtAjPnNQsugVhFeW-" name="Page-1">
    <mxGraphModel dx="782" dy="437" grid="1" gridSize="10" guides="1" tooltips="1" connect="1" arrows="1" fold="1" page="1" pageScale="1" pageWidth="827" pageHeight="1169" math="0" shadow="0">
      <root>
        <mxCell id="0" />
        <mxCell id="1" parent="0" />
        <mxCell id="VfCFXuvqAlAXGb72iytf-54" value="" style="rounded=0;whiteSpace=wrap;html=1;shadow=1;startSize=40;strokeColor=#d79b00;fillColor=#ffe6cc;verticalAlign=top;" vertex="1" parent="1">
          <mxGeometry x="20" y="370" width="710" height="440" as="geometry" />
        </mxCell>
        <mxCell id="VfCFXuvqAlAXGb72iytf-1" value="span_main_t&#xa;镜像管理结构体" style="swimlane;fontStyle=1;align=center;verticalAlign=top;childLayout=stackLayout;horizontal=1;startSize=40;horizontalStack=0;resizeParent=1;resizeParentMax=0;resizeLast=0;collapsible=1;marginBottom=0;fillColor=#ffe6cc;strokeColor=#d79b00;shadow=1;rounded=1;" vertex="1" parent="1">
          <mxGeometry x="50" y="100" width="220" height="210" as="geometry" />
        </mxCell>
        <mxCell id="VfCFXuvqAlAXGb72iytf-2" value="u32 l2_input_next[32];&#xa;u32 l2_output_next[32];&#xa;L2层镜像存储feature信息。" style="text;strokeColor=#d6b656;fillColor=#fff2cc;align=left;verticalAlign=top;spacingLeft=4;spacingRight=4;overflow=hidden;rotatable=0;points=[[0,0.5],[1,0.5]];portConstraint=eastwest;shadow=1;rounded=1;" vertex="1" parent="VfCFXuvqAlAXGb72iytf-1">
          <mxGeometry y="40" width="220" height="50" as="geometry" />
        </mxCell>
        <mxCell id="VfCFXuvqAlAXGb72iytf-4" value="span_interface_t *interfaces;&#xa;vec结构，以镜像镜像口索引。" style="text;strokeColor=#d6b656;fillColor=#fff2cc;align=left;verticalAlign=top;spacingLeft=4;spacingRight=4;overflow=hidden;rotatable=0;points=[[0,0.5],[1,0.5]];portConstraint=eastwest;shadow=1;rounded=1;" vertex="1" parent="VfCFXuvqAlAXGb72iytf-1">
          <mxGeometry y="90" width="220" height="40" as="geometry" />
        </mxCell>
        <mxCell id="VfCFXuvqAlAXGb72iytf-5" value="u32 max_sw_if_index；&#xa;存储镜像观察口最大接口索引" style="text;fillColor=#fff2cc;align=left;verticalAlign=top;spacingLeft=4;spacingRight=4;overflow=hidden;rotatable=0;points=[[0,0.5],[1,0.5]];portConstraint=eastwest;strokeColor=#d6b656;shadow=1;rounded=1;" vertex="1" parent="VfCFXuvqAlAXGb72iytf-1">
          <mxGeometry y="130" width="220" height="40" as="geometry" />
        </mxCell>
        <mxCell id="VfCFXuvqAlAXGb72iytf-6" value="vlib_main_t *vlib_main;&#xa;vnet_main_t *vnet_main;" style="text;fillColor=#fff2cc;align=left;verticalAlign=top;spacingLeft=4;spacingRight=4;overflow=hidden;rotatable=0;points=[[0,0.5],[1,0.5]];portConstraint=eastwest;strokeColor=#d6b656;shadow=1;rounded=1;" vertex="1" parent="VfCFXuvqAlAXGb72iytf-1">
          <mxGeometry y="170" width="220" height="40" as="geometry" />
        </mxCell>
        <mxCell id="VfCFXuvqAlAXGb72iytf-17" style="edgeStyle=orthogonalEdgeStyle;orthogonalLoop=1;jettySize=auto;html=1;exitX=1;exitY=0.75;exitDx=0;exitDy=0;entryX=0;entryY=0.25;entryDx=0;entryDy=0;shadow=1;curved=1;" edge="1" parent="1" source="VfCFXuvqAlAXGb72iytf-8" target="VfCFXuvqAlAXGb72iytf-12">
          <mxGeometry relative="1" as="geometry" />
        </mxCell>
        <mxCell id="VfCFXuvqAlAXGb72iytf-8" value="span_interface_t&#xa;镜像实例" style="swimlane;fontStyle=1;align=center;verticalAlign=top;childLayout=stackLayout;horizontal=1;startSize=40;horizontalStack=0;resizeParent=1;resizeParentMax=0;resizeLast=0;collapsible=1;marginBottom=0;strokeColor=#d6b656;fillColor=#fff2cc;shadow=1;rounded=1;" vertex="1" parent="1">
          <mxGeometry x="330" y="100" width="230" height="94" as="geometry" />
        </mxCell>
        <mxCell id="VfCFXuvqAlAXGb72iytf-9" value="span_mirror_t mirror_rxtx[x][y];&#xa;x：镜像类型，0:所有报文，1：针对l2转发&#xa;y: 镜像方向，inbound or outboard" style="text;strokeColor=#b85450;fillColor=#f8cecc;align=left;verticalAlign=top;spacingLeft=4;spacingRight=4;overflow=hidden;rotatable=0;points=[[0,0.5],[1,0.5]];portConstraint=eastwest;shadow=1;rounded=1;" vertex="1" parent="VfCFXuvqAlAXGb72iytf-8">
          <mxGeometry y="40" width="230" height="54" as="geometry" />
        </mxCell>
        <mxCell id="VfCFXuvqAlAXGb72iytf-12" value="span_mirror_t&#xa;镜像观察口" style="swimlane;fontStyle=1;align=center;verticalAlign=top;childLayout=stackLayout;horizontal=1;startSize=40;horizontalStack=0;resizeParent=1;resizeParentMax=0;resizeLast=0;collapsible=1;marginBottom=0;strokeColor=#b85450;fillColor=#f8cecc;shadow=1;rounded=1;" vertex="1" parent="1">
          <mxGeometry x="620" y="100" width="160" height="134" as="geometry" />
        </mxCell>
        <mxCell id="VfCFXuvqAlAXGb72iytf-13" value="clib_bitmap_t *mirror_ports&#xa;bitmap方式存储镜像观察口&#xa;接口索引" style="text;strokeColor=#d6b656;fillColor=#fff2cc;align=left;verticalAlign=top;spacingLeft=4;spacingRight=4;overflow=hidden;rotatable=0;points=[[0,0.5],[1,0.5]];portConstraint=eastwest;shadow=1;rounded=1;" vertex="1" parent="VfCFXuvqAlAXGb72iytf-12">
          <mxGeometry y="40" width="160" height="50" as="geometry" />
        </mxCell>
        <mxCell id="VfCFXuvqAlAXGb72iytf-15" value="u32 num_mirror_ports；&#xa;镜像观察口数量" style="text;fillColor=#fff2cc;align=left;verticalAlign=top;spacingLeft=4;spacingRight=4;overflow=hidden;rotatable=0;points=[[0,0.5],[1,0.5]];portConstraint=eastwest;strokeColor=#d6b656;shadow=1;rounded=1;" vertex="1" parent="VfCFXuvqAlAXGb72iytf-12">
          <mxGeometry y="90" width="160" height="44" as="geometry" />
        </mxCell>
        <mxCell id="VfCFXuvqAlAXGb72iytf-16" style="edgeStyle=orthogonalEdgeStyle;orthogonalLoop=1;jettySize=auto;html=1;exitX=1;exitY=0.5;exitDx=0;exitDy=0;entryX=0;entryY=0.25;entryDx=0;entryDy=0;shadow=1;curved=1;" edge="1" parent="1" source="VfCFXuvqAlAXGb72iytf-4" target="VfCFXuvqAlAXGb72iytf-8">
          <mxGeometry relative="1" as="geometry" />
        </mxCell>
        <mxCell id="VfCFXuvqAlAXGb72iytf-20" value="" style="edgeStyle=orthogonalEdgeStyle;curved=1;rounded=0;orthogonalLoop=1;jettySize=auto;html=1;shadow=1;startSize=40;" edge="1" parent="1" source="VfCFXuvqAlAXGb72iytf-18" target="VfCFXuvqAlAXGb72iytf-19">
          <mxGeometry relative="1" as="geometry" />
        </mxCell>
        <mxCell id="VfCFXuvqAlAXGb72iytf-18" value="dpdk-input" style="ellipse;whiteSpace=wrap;html=1;rounded=1;shadow=1;startSize=40;strokeColor=#d79b00;fillColor=#ffe6cc;verticalAlign=top;" vertex="1" parent="1">
          <mxGeometry x="150" y="390" width="100" height="30" as="geometry" />
        </mxCell>
        <mxCell id="VfCFXuvqAlAXGb72iytf-22" value="" style="edgeStyle=orthogonalEdgeStyle;curved=1;rounded=0;orthogonalLoop=1;jettySize=auto;html=1;shadow=1;startSize=40;" edge="1" parent="1" source="VfCFXuvqAlAXGb72iytf-19" target="VfCFXuvqAlAXGb72iytf-21">
          <mxGeometry relative="1" as="geometry" />
        </mxCell>
        <mxCell id="VfCFXuvqAlAXGb72iytf-50" style="edgeStyle=orthogonalEdgeStyle;rounded=0;orthogonalLoop=1;jettySize=auto;html=1;exitX=0;exitY=0.5;exitDx=0;exitDy=0;entryX=0;entryY=0.5;entryDx=0;entryDy=0;shadow=1;startSize=40;fillColor=#60a917;strokeColor=#2D7600;strokeWidth=3;" edge="1" parent="1" source="VfCFXuvqAlAXGb72iytf-19" target="VfCFXuvqAlAXGb72iytf-35">
          <mxGeometry relative="1" as="geometry">
            <Array as="points">
              <mxPoint x="40" y="455" />
              <mxPoint x="40" y="785" />
            </Array>
          </mxGeometry>
        </mxCell>
        <mxCell id="VfCFXuvqAlAXGb72iytf-19" value="span-input" style="ellipse;whiteSpace=wrap;html=1;rounded=1;shadow=1;startSize=40;strokeColor=#2D7600;fillColor=#60a917;verticalAlign=top;fontColor=#ffffff;" vertex="1" parent="1">
          <mxGeometry x="150" y="440" width="100" height="30" as="geometry" />
        </mxCell>
        <mxCell id="VfCFXuvqAlAXGb72iytf-24" value="" style="edgeStyle=orthogonalEdgeStyle;curved=1;rounded=0;orthogonalLoop=1;jettySize=auto;html=1;shadow=1;startSize=40;" edge="1" parent="1" source="VfCFXuvqAlAXGb72iytf-21" target="VfCFXuvqAlAXGb72iytf-23">
          <mxGeometry relative="1" as="geometry" />
        </mxCell>
        <mxCell id="VfCFXuvqAlAXGb72iytf-25" value="" style="edgeStyle=orthogonalEdgeStyle;curved=1;rounded=0;orthogonalLoop=1;jettySize=auto;html=1;shadow=1;startSize=40;" edge="1" parent="1" source="VfCFXuvqAlAXGb72iytf-21" target="VfCFXuvqAlAXGb72iytf-23">
          <mxGeometry relative="1" as="geometry" />
        </mxCell>
        <mxCell id="VfCFXuvqAlAXGb72iytf-26" value="" style="edgeStyle=orthogonalEdgeStyle;curved=1;rounded=0;orthogonalLoop=1;jettySize=auto;html=1;shadow=1;startSize=40;" edge="1" parent="1" source="VfCFXuvqAlAXGb72iytf-21" target="VfCFXuvqAlAXGb72iytf-23">
          <mxGeometry relative="1" as="geometry" />
        </mxCell>
        <mxCell id="VfCFXuvqAlAXGb72iytf-28" value="" style="edgeStyle=orthogonalEdgeStyle;curved=1;rounded=0;orthogonalLoop=1;jettySize=auto;html=1;shadow=1;startSize=40;" edge="1" parent="1" source="VfCFXuvqAlAXGb72iytf-21" target="VfCFXuvqAlAXGb72iytf-27">
          <mxGeometry relative="1" as="geometry" />
        </mxCell>
        <mxCell id="VfCFXuvqAlAXGb72iytf-21" value="ethernet-input" style="ellipse;whiteSpace=wrap;html=1;rounded=1;shadow=1;startSize=40;strokeColor=#d79b00;fillColor=#ffe6cc;verticalAlign=top;" vertex="1" parent="1">
          <mxGeometry x="150" y="490" width="100" height="30" as="geometry" />
        </mxCell>
        <mxCell id="VfCFXuvqAlAXGb72iytf-30" value="" style="edgeStyle=orthogonalEdgeStyle;curved=1;rounded=0;orthogonalLoop=1;jettySize=auto;html=1;shadow=1;startSize=40;" edge="1" parent="1" source="VfCFXuvqAlAXGb72iytf-23" target="VfCFXuvqAlAXGb72iytf-29">
          <mxGeometry relative="1" as="geometry" />
        </mxCell>
        <mxCell id="VfCFXuvqAlAXGb72iytf-23" value="l2-input" style="ellipse;whiteSpace=wrap;html=1;rounded=1;shadow=1;startSize=40;strokeColor=#d79b00;fillColor=#ffe6cc;verticalAlign=top;" vertex="1" parent="1">
          <mxGeometry x="230" y="550" width="100" height="30" as="geometry" />
        </mxCell>
        <mxCell id="VfCFXuvqAlAXGb72iytf-27" value="ip4-input" style="ellipse;whiteSpace=wrap;html=1;rounded=1;shadow=1;startSize=40;strokeColor=#d79b00;fillColor=#ffe6cc;verticalAlign=top;" vertex="1" parent="1">
          <mxGeometry x="60" y="550" width="100" height="30" as="geometry" />
        </mxCell>
        <mxCell id="VfCFXuvqAlAXGb72iytf-52" style="edgeStyle=orthogonalEdgeStyle;rounded=0;orthogonalLoop=1;jettySize=auto;html=1;exitX=0.5;exitY=1;exitDx=0;exitDy=0;entryX=0.5;entryY=0;entryDx=0;entryDy=0;shadow=1;startSize=40;fillColor=#0050ef;strokeColor=#001DBC;strokeWidth=3;" edge="1" parent="1" source="VfCFXuvqAlAXGb72iytf-29" target="VfCFXuvqAlAXGb72iytf-33">
          <mxGeometry relative="1" as="geometry" />
        </mxCell>
        <mxCell id="VfCFXuvqAlAXGb72iytf-29" value="span-l2-input" style="ellipse;whiteSpace=wrap;html=1;rounded=1;shadow=1;startSize=40;strokeColor=#001DBC;fillColor=#0050ef;verticalAlign=top;fontColor=#ffffff;" vertex="1" parent="1">
          <mxGeometry x="230" y="600" width="100" height="30" as="geometry" />
        </mxCell>
        <mxCell id="VfCFXuvqAlAXGb72iytf-36" value="" style="edgeStyle=orthogonalEdgeStyle;curved=1;rounded=0;orthogonalLoop=1;jettySize=auto;html=1;shadow=1;startSize=40;" edge="1" parent="1" source="VfCFXuvqAlAXGb72iytf-33" target="VfCFXuvqAlAXGb72iytf-35">
          <mxGeometry relative="1" as="geometry" />
        </mxCell>
        <mxCell id="VfCFXuvqAlAXGb72iytf-33" value="l2-output" style="ellipse;whiteSpace=wrap;html=1;rounded=1;shadow=1;startSize=40;strokeColor=#d79b00;fillColor=#ffe6cc;verticalAlign=top;" vertex="1" parent="1">
          <mxGeometry x="340" y="690" width="100" height="30" as="geometry" />
        </mxCell>
        <mxCell id="VfCFXuvqAlAXGb72iytf-35" value="interface-output" style="ellipse;whiteSpace=wrap;html=1;rounded=1;shadow=1;startSize=40;strokeColor=#A50040;fillColor=#d80073;verticalAlign=top;fontColor=#ffffff;" vertex="1" parent="1">
          <mxGeometry x="340" y="770" width="100" height="30" as="geometry" />
        </mxCell>
        <mxCell id="VfCFXuvqAlAXGb72iytf-39" value="" style="edgeStyle=orthogonalEdgeStyle;curved=1;rounded=0;orthogonalLoop=1;jettySize=auto;html=1;shadow=1;startSize=40;" edge="1" parent="1" source="VfCFXuvqAlAXGb72iytf-37" target="VfCFXuvqAlAXGb72iytf-38">
          <mxGeometry relative="1" as="geometry" />
        </mxCell>
        <mxCell id="VfCFXuvqAlAXGb72iytf-41" value="" style="edgeStyle=orthogonalEdgeStyle;curved=1;rounded=0;orthogonalLoop=1;jettySize=auto;html=1;shadow=1;startSize=40;" edge="1" parent="1" source="VfCFXuvqAlAXGb72iytf-37" target="VfCFXuvqAlAXGb72iytf-40">
          <mxGeometry relative="1" as="geometry" />
        </mxCell>
        <mxCell id="VfCFXuvqAlAXGb72iytf-37" value="interface-output" style="ellipse;whiteSpace=wrap;html=1;rounded=1;shadow=1;startSize=40;strokeColor=#d79b00;fillColor=#ffe6cc;verticalAlign=top;" vertex="1" parent="1">
          <mxGeometry x="520" y="390" width="100" height="30" as="geometry" />
        </mxCell>
        <mxCell id="VfCFXuvqAlAXGb72iytf-51" style="edgeStyle=orthogonalEdgeStyle;rounded=0;orthogonalLoop=1;jettySize=auto;html=1;exitX=0.5;exitY=1;exitDx=0;exitDy=0;entryX=1;entryY=0.5;entryDx=0;entryDy=0;shadow=1;startSize=40;fillColor=#60a917;strokeColor=#2D7600;strokeWidth=3;" edge="1" parent="1" source="VfCFXuvqAlAXGb72iytf-38" target="VfCFXuvqAlAXGb72iytf-35">
          <mxGeometry relative="1" as="geometry" />
        </mxCell>
        <mxCell id="VfCFXuvqAlAXGb72iytf-38" value="span-output" style="ellipse;whiteSpace=wrap;html=1;rounded=1;shadow=1;startSize=40;strokeColor=#2D7600;fillColor=#60a917;verticalAlign=top;fontColor=#ffffff;" vertex="1" parent="1">
          <mxGeometry x="430" y="460" width="100" height="30" as="geometry" />
        </mxCell>
        <mxCell id="VfCFXuvqAlAXGb72iytf-43" value="" style="edgeStyle=orthogonalEdgeStyle;curved=1;rounded=0;orthogonalLoop=1;jettySize=auto;html=1;shadow=1;startSize=40;" edge="1" parent="1" source="VfCFXuvqAlAXGb72iytf-40" target="VfCFXuvqAlAXGb72iytf-42">
          <mxGeometry relative="1" as="geometry" />
        </mxCell>
        <mxCell id="VfCFXuvqAlAXGb72iytf-40" value="i2-input&lt;br&gt;l2-fwd" style="ellipse;whiteSpace=wrap;html=1;rounded=1;shadow=1;startSize=40;strokeColor=#d79b00;fillColor=#ffe6cc;verticalAlign=top;" vertex="1" parent="1">
          <mxGeometry x="610" y="460" width="100" height="30" as="geometry" />
        </mxCell>
        <mxCell id="VfCFXuvqAlAXGb72iytf-45" value="" style="edgeStyle=orthogonalEdgeStyle;curved=1;rounded=0;orthogonalLoop=1;jettySize=auto;html=1;shadow=1;startSize=40;" edge="1" parent="1" source="VfCFXuvqAlAXGb72iytf-42" target="VfCFXuvqAlAXGb72iytf-44">
          <mxGeometry relative="1" as="geometry" />
        </mxCell>
        <mxCell id="VfCFXuvqAlAXGb72iytf-42" value="i2-output" style="ellipse;whiteSpace=wrap;html=1;rounded=1;shadow=1;startSize=40;strokeColor=#d79b00;fillColor=#ffe6cc;verticalAlign=top;" vertex="1" parent="1">
          <mxGeometry x="610" y="520" width="100" height="30" as="geometry" />
        </mxCell>
        <mxCell id="VfCFXuvqAlAXGb72iytf-53" style="edgeStyle=orthogonalEdgeStyle;rounded=0;orthogonalLoop=1;jettySize=auto;html=1;exitX=0.5;exitY=1;exitDx=0;exitDy=0;shadow=1;startSize=40;strokeWidth=3;fillColor=#0050ef;strokeColor=#001DBC;" edge="1" parent="1" source="VfCFXuvqAlAXGb72iytf-44">
          <mxGeometry relative="1" as="geometry">
            <mxPoint x="390" y="690" as="targetPoint" />
            <Array as="points">
              <mxPoint x="660" y="660" />
              <mxPoint x="390" y="660" />
            </Array>
          </mxGeometry>
        </mxCell>
        <mxCell id="VfCFXuvqAlAXGb72iytf-44" value="span-l2-output" style="ellipse;whiteSpace=wrap;html=1;rounded=1;shadow=1;startSize=40;strokeColor=#001DBC;fillColor=#0050ef;verticalAlign=top;fontColor=#ffffff;" vertex="1" parent="1">
          <mxGeometry x="610" y="570" width="100" height="30" as="geometry" />
        </mxCell>
        <mxCell id="VfCFXuvqAlAXGb72iytf-56" value="" style="endArrow=none;dashed=1;html=1;shadow=1;startSize=40;strokeWidth=3;fillColor=#d80073;strokeColor=#A50040;" edge="1" parent="1">
          <mxGeometry width="50" height="50" relative="1" as="geometry">
            <mxPoint x="40" y="640" as="sourcePoint" />
            <mxPoint x="710" y="640" as="targetPoint" />
          </mxGeometry>
        </mxCell>
        <mxCell id="VfCFXuvqAlAXGb72iytf-57" value="镜像端口" style="text;html=1;fillColor=none;align=center;verticalAlign=middle;whiteSpace=wrap;rounded=0;shadow=1;startSize=40;strokeColor=#000000;" vertex="1" parent="1">
          <mxGeometry x="50" y="490" width="70" height="20" as="geometry" />
        </mxCell>
        <mxCell id="VfCFXuvqAlAXGb72iytf-58" value="镜像观察端口" style="text;html=1;fillColor=none;align=center;verticalAlign=middle;whiteSpace=wrap;rounded=0;shadow=1;startSize=40;strokeColor=#000000;" vertex="1" parent="1">
          <mxGeometry x="50" y="660" width="100" height="20" as="geometry" />
        </mxCell>
        <mxCell id="VfCFXuvqAlAXGb72iytf-59" value="" style="endArrow=none;dashed=1;html=1;shadow=1;startSize=40;strokeWidth=3;fillColor=#ffe6cc;strokeColor=#d79b00;" edge="1" parent="1">
          <mxGeometry width="50" height="50" relative="1" as="geometry">
            <mxPoint x="390" y="640" as="sourcePoint" />
            <mxPoint x="389.5" y="370" as="targetPoint" />
          </mxGeometry>
        </mxCell>
        <mxCell id="VfCFXuvqAlAXGb72iytf-60" value="RX 方向镜像" style="text;html=1;fillColor=none;align=center;verticalAlign=middle;whiteSpace=wrap;rounded=0;shadow=1;startSize=40;strokeColor=#000000;" vertex="1" parent="1">
          <mxGeometry x="70" y="380" width="80" height="20" as="geometry" />
        </mxCell>
        <mxCell id="VfCFXuvqAlAXGb72iytf-61" value="TX 方向镜像" style="text;html=1;fillColor=none;align=center;verticalAlign=middle;whiteSpace=wrap;rounded=0;shadow=1;startSize=40;strokeColor=#000000;" vertex="1" parent="1">
          <mxGeometry x="420" y="380" width="80" height="20" as="geometry" />
        </mxCell>
      </root>
    </mxGraphModel>
  </diagram>
</mxfile>
